<svg xmlns="http://www.w3.org/2000/svg" viewBox="0 0 100 100">
  <circle cx="50" cy="50" r="46" fill="#F58220"/>
  <!-- Truck silhouette and speed trails -->
  <path d="M12 40 h 18 M8 48 h 22 M14 56 h 16" stroke="#000000" stroke-width="3" stroke-linecap="round"/>
  <!-- Cab -->
  <path d="M34 32 h 28 c 4 0 7 3 8 7 l 6 12 c 1 2 2 4 2 7 v 8 c 0 2 -1 3 -3 3 h -41 z" fill="#000000"/>
  <!-- Windshield -->
  <path d="M48 37 h 13 l 4 9 h -17 z" fill="#F58220"/>
  <!-- Front Grille -->
  <rect x="52" y="52" width="16" height="5" rx="1" fill="#F58220"/>
  <!-- Wheels -->
  <circle cx="44" cy="69" r="6" fill="#000000"/>
  <circle cx="44" cy="69" r="2.5" fill="#F58220"/>
  <circle cx="68" cy="69" r="6" fill="#000000"/>
  <circle cx="68" cy="69" r="2.5" fill="#F58220"/>
</svg>

